<mxfile host="Electron" modified="2024-06-12T18:20:56.997Z" agent="Mozilla/5.0 (Macintosh; Intel Mac OS X 10_15_7) AppleWebKit/537.36 (KHTML, like Gecko) draw.io/24.2.5 Chrome/120.0.6099.109 Electron/28.1.0 Safari/537.36" etag="etYe7jxlBs4kfly9fcFm" version="24.2.5" type="device">
  <diagram name="Page-1" id="KEOrZav76Aly4ivOEtbQ">
    <mxGraphModel dx="1918" dy="661" grid="1" gridSize="10" guides="1" tooltips="1" connect="1" arrows="1" fold="1" page="1" pageScale="1" pageWidth="827" pageHeight="1169" math="0" shadow="0">
      <root>
        <mxCell id="0" />
        <mxCell id="1" parent="0" />
        <mxCell id="odoK_0CoZ4ZpcwqMM9DU-37" value="Trabajador" style="swimlane;html=1;fontStyle=1;align=center;verticalAlign=top;childLayout=stackLayout;horizontal=1;startSize=26;horizontalStack=0;resizeParent=1;resizeLast=0;collapsible=1;marginBottom=0;swimlaneFillColor=#ffffff;rounded=0;shadow=0;comic=0;labelBackgroundColor=none;strokeWidth=1;fillColor=none;fontFamily=Verdana;fontSize=12" parent="1" vertex="1">
          <mxGeometry x="-80" y="200" width="160" height="164" as="geometry" />
        </mxCell>
        <mxCell id="odoK_0CoZ4ZpcwqMM9DU-39" value="# nombres: cadena" style="text;html=1;strokeColor=none;fillColor=none;align=left;verticalAlign=top;spacingLeft=4;spacingRight=4;whiteSpace=wrap;overflow=hidden;rotatable=0;points=[[0,0.5],[1,0.5]];portConstraint=eastwest;" parent="odoK_0CoZ4ZpcwqMM9DU-37" vertex="1">
          <mxGeometry y="26" width="160" height="26" as="geometry" />
        </mxCell>
        <mxCell id="odoK_0CoZ4ZpcwqMM9DU-40" value="# apellidos: cadena" style="text;html=1;strokeColor=none;fillColor=none;align=left;verticalAlign=top;spacingLeft=4;spacingRight=4;whiteSpace=wrap;overflow=hidden;rotatable=0;points=[[0,0.5],[1,0.5]];portConstraint=eastwest;" parent="odoK_0CoZ4ZpcwqMM9DU-37" vertex="1">
          <mxGeometry y="52" width="160" height="26" as="geometry" />
        </mxCell>
        <mxCell id="odoK_0CoZ4ZpcwqMM9DU-41" value="# direccion: cadena" style="text;html=1;strokeColor=none;fillColor=none;align=left;verticalAlign=top;spacingLeft=4;spacingRight=4;whiteSpace=wrap;overflow=hidden;rotatable=0;points=[[0,0.5],[1,0.5]];portConstraint=eastwest;" parent="odoK_0CoZ4ZpcwqMM9DU-37" vertex="1">
          <mxGeometry y="78" width="160" height="26" as="geometry" />
        </mxCell>
        <mxCell id="odoK_0CoZ4ZpcwqMM9DU-99" value="# dni: cadena" style="text;html=1;strokeColor=none;fillColor=none;align=left;verticalAlign=top;spacingLeft=4;spacingRight=4;whiteSpace=wrap;overflow=hidden;rotatable=0;points=[[0,0.5],[1,0.5]];portConstraint=eastwest;" parent="odoK_0CoZ4ZpcwqMM9DU-37" vertex="1">
          <mxGeometry y="104" width="160" height="26" as="geometry" />
        </mxCell>
        <mxCell id="odoK_0CoZ4ZpcwqMM9DU-42" value="" style="line;html=1;strokeWidth=1;fillColor=none;align=left;verticalAlign=middle;spacingTop=-1;spacingLeft=3;spacingRight=3;rotatable=0;labelPosition=right;points=[];portConstraint=eastwest;" parent="odoK_0CoZ4ZpcwqMM9DU-37" vertex="1">
          <mxGeometry y="130" width="160" height="8" as="geometry" />
        </mxCell>
        <mxCell id="odoK_0CoZ4ZpcwqMM9DU-115" style="edgeStyle=orthogonalEdgeStyle;rounded=0;orthogonalLoop=1;jettySize=auto;html=1;exitX=0.5;exitY=0;exitDx=0;exitDy=0;endArrow=block;endFill=0;" parent="1" source="odoK_0CoZ4ZpcwqMM9DU-72" edge="1">
          <mxGeometry relative="1" as="geometry">
            <mxPoint y="370" as="targetPoint" />
          </mxGeometry>
        </mxCell>
        <mxCell id="odoK_0CoZ4ZpcwqMM9DU-72" value="FijoMensual" style="swimlane;html=1;fontStyle=1;align=center;verticalAlign=top;childLayout=stackLayout;horizontal=1;startSize=26;horizontalStack=0;resizeParent=1;resizeLast=0;collapsible=1;marginBottom=0;swimlaneFillColor=#ffffff;rounded=0;shadow=0;comic=0;labelBackgroundColor=none;strokeWidth=1;fillColor=none;fontFamily=Verdana;fontSize=12" parent="1" vertex="1">
          <mxGeometry x="-520" y="439" width="239" height="91" as="geometry" />
        </mxCell>
        <mxCell id="odoK_0CoZ4ZpcwqMM9DU-73" value="- salario: real" style="text;html=1;strokeColor=none;fillColor=none;align=left;verticalAlign=top;spacingLeft=4;spacingRight=4;whiteSpace=wrap;overflow=hidden;rotatable=0;points=[[0,0.5],[1,0.5]];portConstraint=eastwest;" parent="odoK_0CoZ4ZpcwqMM9DU-72" vertex="1">
          <mxGeometry y="26" width="239" height="26" as="geometry" />
        </mxCell>
        <mxCell id="odoK_0CoZ4ZpcwqMM9DU-108" value="- Jefe: jefe" style="text;html=1;strokeColor=none;fillColor=none;align=left;verticalAlign=top;spacingLeft=4;spacingRight=4;whiteSpace=wrap;overflow=hidden;rotatable=0;points=[[0,0.5],[1,0.5]];portConstraint=eastwest;" parent="odoK_0CoZ4ZpcwqMM9DU-72" vertex="1">
          <mxGeometry y="52" width="239" height="26" as="geometry" />
        </mxCell>
        <mxCell id="odoK_0CoZ4ZpcwqMM9DU-80" value="" style="line;html=1;strokeWidth=1;fillColor=none;align=left;verticalAlign=middle;spacingTop=-1;spacingLeft=3;spacingRight=3;rotatable=0;labelPosition=right;points=[];portConstraint=eastwest;" parent="odoK_0CoZ4ZpcwqMM9DU-72" vertex="1">
          <mxGeometry y="78" width="239" height="8" as="geometry" />
        </mxCell>
        <mxCell id="odoK_0CoZ4ZpcwqMM9DU-116" style="edgeStyle=orthogonalEdgeStyle;rounded=0;orthogonalLoop=1;jettySize=auto;html=1;exitX=0.5;exitY=0;exitDx=0;exitDy=0;endArrow=block;endFill=0;" parent="1" source="odoK_0CoZ4ZpcwqMM9DU-84" edge="1">
          <mxGeometry relative="1" as="geometry">
            <mxPoint y="370" as="targetPoint" />
          </mxGeometry>
        </mxCell>
        <mxCell id="odoK_0CoZ4ZpcwqMM9DU-84" value="Comisionista" style="swimlane;html=1;fontStyle=1;align=center;verticalAlign=top;childLayout=stackLayout;horizontal=1;startSize=26;horizontalStack=0;resizeParent=1;resizeLast=0;collapsible=1;marginBottom=0;swimlaneFillColor=#ffffff;rounded=0;shadow=0;comic=0;labelBackgroundColor=none;strokeWidth=1;fillColor=none;fontFamily=Verdana;fontSize=12" parent="1" vertex="1">
          <mxGeometry x="-260" y="439" width="240" height="164" as="geometry" />
        </mxCell>
        <mxCell id="odoK_0CoZ4ZpcwqMM9DU-85" value="- porcentajeComision: entero" style="text;html=1;strokeColor=none;fillColor=none;align=left;verticalAlign=top;spacingLeft=4;spacingRight=4;whiteSpace=wrap;overflow=hidden;rotatable=0;points=[[0,0.5],[1,0.5]];portConstraint=eastwest;" parent="odoK_0CoZ4ZpcwqMM9DU-84" vertex="1">
          <mxGeometry y="26" width="240" height="26" as="geometry" />
        </mxCell>
        <mxCell id="odoK_0CoZ4ZpcwqMM9DU-110" value="- totalVentas: real" style="text;html=1;strokeColor=none;fillColor=none;align=left;verticalAlign=top;spacingLeft=4;spacingRight=4;whiteSpace=wrap;overflow=hidden;rotatable=0;points=[[0,0.5],[1,0.5]];portConstraint=eastwest;" parent="odoK_0CoZ4ZpcwqMM9DU-84" vertex="1">
          <mxGeometry y="52" width="240" height="26" as="geometry" />
        </mxCell>
        <mxCell id="odoK_0CoZ4ZpcwqMM9DU-86" value="- salario: real" style="text;html=1;strokeColor=none;fillColor=none;align=left;verticalAlign=top;spacingLeft=4;spacingRight=4;whiteSpace=wrap;overflow=hidden;rotatable=0;points=[[0,0.5],[1,0.5]];portConstraint=eastwest;" parent="odoK_0CoZ4ZpcwqMM9DU-84" vertex="1">
          <mxGeometry y="78" width="240" height="26" as="geometry" />
        </mxCell>
        <mxCell id="sDQfWW1P8ri0ubDpp_tO-1" value="- Jefe: jefe" style="text;html=1;strokeColor=none;fillColor=none;align=left;verticalAlign=top;spacingLeft=4;spacingRight=4;whiteSpace=wrap;overflow=hidden;rotatable=0;points=[[0,0.5],[1,0.5]];portConstraint=eastwest;" vertex="1" parent="odoK_0CoZ4ZpcwqMM9DU-84">
          <mxGeometry y="104" width="240" height="26" as="geometry" />
        </mxCell>
        <mxCell id="odoK_0CoZ4ZpcwqMM9DU-89" value="" style="line;html=1;strokeWidth=1;fillColor=none;align=left;verticalAlign=middle;spacingTop=-1;spacingLeft=3;spacingRight=3;rotatable=0;labelPosition=right;points=[];portConstraint=eastwest;" parent="odoK_0CoZ4ZpcwqMM9DU-84" vertex="1">
          <mxGeometry y="130" width="240" height="8" as="geometry" />
        </mxCell>
        <mxCell id="odoK_0CoZ4ZpcwqMM9DU-90" value="+ calclularSalario(): void" style="text;html=1;strokeColor=none;fillColor=none;align=left;verticalAlign=top;spacingLeft=4;spacingRight=4;whiteSpace=wrap;overflow=hidden;rotatable=0;points=[[0,0.5],[1,0.5]];portConstraint=eastwest;" parent="odoK_0CoZ4ZpcwqMM9DU-84" vertex="1">
          <mxGeometry y="138" width="240" height="26" as="geometry" />
        </mxCell>
        <mxCell id="odoK_0CoZ4ZpcwqMM9DU-117" style="edgeStyle=orthogonalEdgeStyle;rounded=0;orthogonalLoop=1;jettySize=auto;html=1;exitX=0.5;exitY=0;exitDx=0;exitDy=0;endArrow=block;endFill=0;" parent="1" source="odoK_0CoZ4ZpcwqMM9DU-92" edge="1">
          <mxGeometry relative="1" as="geometry">
            <mxPoint y="370" as="targetPoint" />
          </mxGeometry>
        </mxCell>
        <mxCell id="odoK_0CoZ4ZpcwqMM9DU-92" value="PorHoras" style="swimlane;html=1;fontStyle=1;align=center;verticalAlign=top;childLayout=stackLayout;horizontal=1;startSize=26;horizontalStack=0;resizeParent=1;resizeLast=0;collapsible=1;marginBottom=0;swimlaneFillColor=#ffffff;rounded=0;shadow=0;comic=0;labelBackgroundColor=none;strokeWidth=1;fillColor=none;fontFamily=Verdana;fontSize=12" parent="1" vertex="1">
          <mxGeometry y="439" width="240" height="138" as="geometry" />
        </mxCell>
        <mxCell id="odoK_0CoZ4ZpcwqMM9DU-93" value="- horasMes: entero" style="text;html=1;strokeColor=none;fillColor=none;align=left;verticalAlign=top;spacingLeft=4;spacingRight=4;whiteSpace=wrap;overflow=hidden;rotatable=0;points=[[0,0.5],[1,0.5]];portConstraint=eastwest;" parent="odoK_0CoZ4ZpcwqMM9DU-92" vertex="1">
          <mxGeometry y="26" width="240" height="26" as="geometry" />
        </mxCell>
        <mxCell id="odoK_0CoZ4ZpcwqMM9DU-94" value="- salario: real" style="text;html=1;strokeColor=none;fillColor=none;align=left;verticalAlign=top;spacingLeft=4;spacingRight=4;whiteSpace=wrap;overflow=hidden;rotatable=0;points=[[0,0.5],[1,0.5]];portConstraint=eastwest;" parent="odoK_0CoZ4ZpcwqMM9DU-92" vertex="1">
          <mxGeometry y="52" width="240" height="26" as="geometry" />
        </mxCell>
        <mxCell id="sDQfWW1P8ri0ubDpp_tO-3" value="- Jefe: jefe" style="text;html=1;strokeColor=none;fillColor=none;align=left;verticalAlign=top;spacingLeft=4;spacingRight=4;whiteSpace=wrap;overflow=hidden;rotatable=0;points=[[0,0.5],[1,0.5]];portConstraint=eastwest;" vertex="1" parent="odoK_0CoZ4ZpcwqMM9DU-92">
          <mxGeometry y="78" width="240" height="26" as="geometry" />
        </mxCell>
        <mxCell id="odoK_0CoZ4ZpcwqMM9DU-95" value="" style="line;html=1;strokeWidth=1;fillColor=none;align=left;verticalAlign=middle;spacingTop=-1;spacingLeft=3;spacingRight=3;rotatable=0;labelPosition=right;points=[];portConstraint=eastwest;" parent="odoK_0CoZ4ZpcwqMM9DU-92" vertex="1">
          <mxGeometry y="104" width="240" height="8" as="geometry" />
        </mxCell>
        <mxCell id="odoK_0CoZ4ZpcwqMM9DU-97" value="+ calcularSalario(): void" style="text;html=1;strokeColor=none;fillColor=none;align=left;verticalAlign=top;spacingLeft=4;spacingRight=4;whiteSpace=wrap;overflow=hidden;rotatable=0;points=[[0,0.5],[1,0.5]];portConstraint=eastwest;" parent="odoK_0CoZ4ZpcwqMM9DU-92" vertex="1">
          <mxGeometry y="112" width="240" height="26" as="geometry" />
        </mxCell>
        <mxCell id="odoK_0CoZ4ZpcwqMM9DU-119" style="edgeStyle=orthogonalEdgeStyle;rounded=0;orthogonalLoop=1;jettySize=auto;html=1;exitX=0.5;exitY=0;exitDx=0;exitDy=0;endArrow=block;endFill=0;" parent="1" source="odoK_0CoZ4ZpcwqMM9DU-100" edge="1">
          <mxGeometry relative="1" as="geometry">
            <mxPoint y="370" as="targetPoint" />
          </mxGeometry>
        </mxCell>
        <mxCell id="odoK_0CoZ4ZpcwqMM9DU-100" value="Jefe" style="swimlane;html=1;fontStyle=1;align=center;verticalAlign=top;childLayout=stackLayout;horizontal=1;startSize=26;horizontalStack=0;resizeParent=1;resizeLast=0;collapsible=1;marginBottom=0;swimlaneFillColor=#ffffff;rounded=0;shadow=0;comic=0;labelBackgroundColor=none;strokeWidth=1;fillColor=none;fontFamily=Verdana;fontSize=12" parent="1" vertex="1">
          <mxGeometry x="260" y="439" width="240" height="91" as="geometry" />
        </mxCell>
        <mxCell id="odoK_0CoZ4ZpcwqMM9DU-101" value="- sueldo: real" style="text;html=1;strokeColor=none;fillColor=none;align=left;verticalAlign=top;spacingLeft=4;spacingRight=4;whiteSpace=wrap;overflow=hidden;rotatable=0;points=[[0,0.5],[1,0.5]];portConstraint=eastwest;" parent="odoK_0CoZ4ZpcwqMM9DU-100" vertex="1">
          <mxGeometry y="26" width="240" height="26" as="geometry" />
        </mxCell>
        <mxCell id="odoK_0CoZ4ZpcwqMM9DU-103" value="" style="line;html=1;strokeWidth=1;fillColor=none;align=left;verticalAlign=middle;spacingTop=-1;spacingLeft=3;spacingRight=3;rotatable=0;labelPosition=right;points=[];portConstraint=eastwest;" parent="odoK_0CoZ4ZpcwqMM9DU-100" vertex="1">
          <mxGeometry y="52" width="240" height="8" as="geometry" />
        </mxCell>
        <mxCell id="odoK_0CoZ4ZpcwqMM9DU-104" value="+ calcularCostoMatriculaMaestria(): void" style="text;html=1;strokeColor=none;fillColor=none;align=left;verticalAlign=top;spacingLeft=4;spacingRight=4;whiteSpace=wrap;overflow=hidden;rotatable=0;points=[[0,0.5],[1,0.5]];portConstraint=eastwest;" parent="odoK_0CoZ4ZpcwqMM9DU-100" vertex="1">
          <mxGeometry y="60" width="240" height="26" as="geometry" />
        </mxCell>
      </root>
    </mxGraphModel>
  </diagram>
</mxfile>
